<svg width="24" height="24" viewBox="0 0 24 24" fill="none" xmlns="http://www.w3.org/2000/svg">
<path d="M7.13326 5.26974C7.13301 5.77977 6.93015 6.26881 6.56933 6.62928C6.2085 6.98975 5.71926 7.19211 5.20922 7.19186C4.69919 7.1916 4.21015 6.98875 3.84969 6.62792C3.48922 6.26709 3.28685 5.77785 3.28711 5.26782C3.28736 4.75779 3.49022 4.26875 3.85105 3.90828C4.21187 3.54781 4.70112 3.34545 5.21115 3.3457C5.72118 3.34596 6.21022 3.54881 6.57069 3.90964C6.93115 4.27047 7.13352 4.75971 7.13326 5.26974ZM7.19096 8.6159H3.3448V20.6544H7.19096V8.6159ZM13.2679 8.6159H9.44096V20.6544H13.2294V14.3371C13.2294 10.8178 17.816 10.4909 17.816 14.3371V20.6544H21.614V13.0294C21.614 7.09667 14.8256 7.31782 13.2294 10.2313L13.2679 8.6159Z" fill="#007A80"/>
</svg>
